<svg width="20" height="14" viewBox="0 0 20 14" fill="none" xmlns="http://www.w3.org/2000/svg">
<path d="M10.4386 13.9802L6.37644 13.9042C5.06119 13.8778 3.74267 13.9306 2.45321 13.6565C0.491647 13.247 0.352683 11.2391 0.207272 9.55486C0.00690974 7.18702 0.0844759 4.7762 0.462585 2.42813C0.67604 1.11061 1.51607 0.324442 2.81515 0.238892C7.2005 -0.0715831 11.615 -0.0347886 15.9906 0.110059C16.4528 0.123338 16.9181 0.195914 17.3737 0.278524C19.6231 0.681442 19.6779 2.95684 19.8237 4.8723C19.9691 6.80752 19.9077 8.75268 19.6298 10.6747C19.4068 12.2661 18.9802 13.6007 17.1798 13.7295C14.9241 13.898 12.7201 14.0336 10.458 13.9904C10.4581 13.9802 10.4451 13.9802 10.4386 13.9802ZM8.05046 9.95119C9.75036 8.95378 11.4178 7.97299 13.108 6.98227C11.4049 5.98486 9.74064 5.00407 8.05046 4.01335V9.95119Z" fill="#51798E"/>
</svg>
